<svg width="222" height="32" viewBox="0 0 222 32" fill="none" xmlns="http://www.w3.org/2000/svg">
<path d="M15.6 14.8V18.9H25.8C24.6 23.4 20.55 26.55 15.65 26.55C9.7 26.55 5.05 21.95 5.05 16C5.05 10.05 9.7 5.45 15.65 5.45C19.7 5.45 23.15 7.6 24.95 10.9L29.15 8.65C26.55 3.85 21.45 0.6 15.65 0.6C7.1 0.6 0.25 7.5 0.25 16C0.25 24.5 7.1 31.4 15.65 31.4C24.15 31.4 31.05 24.5 31.05 16V14.8H15.6ZM51.9844 5.45V1H34.7844V31H51.9844V26.55H39.6844V18.25H50.3344V13.75H39.6844V5.45H51.9844ZM70.0656 31.4C78.5656 31.4 85.4656 24.5 85.4656 16C85.4656 7.5 78.5656 0.6 70.0656 0.6C61.5656 0.6 54.6656 7.5 54.6656 16C54.6656 24.5 61.5656 31.4 70.0656 31.4ZM70.0656 26.55C64.1656 26.55 59.5156 21.95 59.5156 16C59.5156 10.05 64.1656 5.45 70.0656 5.45C76.0156 5.45 80.6156 10.05 80.6156 16C80.6156 21.95 76.0156 26.55 70.0656 26.55Z" fill="white"/>
<path d="M114.433 1L105.533 20.1L96.6828 1H88.3828V31H96.0328V14.85L103.483 31H107.583L115.033 14.95V31H122.683V1H114.433ZM144.588 31H152.787L141.937 1H133.388L122.538 31H130.787L132.437 25.75H142.937L144.588 31ZM134.388 19.55L137.687 8.95L141.037 19.55H134.388ZM171.022 1H148.722V7.65H156.072V31H163.672V7.65H171.022V1ZM189.778 1V12.65H178.978V1H171.328V31H178.978V19.3H189.778V31H197.428V1H189.778ZM210.769 31.4C216.519 31.4 221.469 28.05 221.469 22.3C221.469 10.9 207.869 13.75 207.869 9.2C207.869 7.9 208.869 7.3 210.069 7.3C211.569 7.3 213.219 8.2 214.819 9.9L219.819 5.05C217.469 2.3 213.919 0.6 210.169 0.6C205.419 0.6 200.169 3.35 200.169 9.75C200.169 20.15 213.819 17.65 213.819 22.2C213.819 23.4 212.819 24.25 210.869 24.25C208.269 24.25 206.169 22.85 205.119 20.6L198.869 24.5C200.869 28.3 205.269 31.4 210.769 31.4Z" fill="#FEAD33"/>
</svg>
